<mxfile host="app.diagrams.net" modified="2024-03-14T13:50:53.666Z" agent="Mozilla/5.0 (Macintosh; Intel Mac OS X 10_15_7) AppleWebKit/605.1.15 (KHTML, like Gecko) Version/17.4 Safari/605.1.15" version="24.0.1" etag="MMMUNiUeYuDPbaqavG-j" type="github">
  <diagram name="Page-1" id="0tPvqxh1PF2JYcR8AqYR">
    <mxGraphModel>
      <root>
        <mxCell id="0" />
        <mxCell id="1" parent="0" />
      </root>
    </mxGraphModel>
  </diagram>
</mxfile>
